<mxfile host="app.diagrams.net" modified="2024-01-13T15:26:43.119Z" agent="Mozilla/5.0 (Windows NT 10.0; Win64; x64) AppleWebKit/537.36 (KHTML, like Gecko) Chrome/120.0.0.0 Safari/537.36" etag="Saw5pNZrSlhmMnF_efPy" version="22.1.18" type="device" pages="3">
  <diagram id="BV2bp7-jKZivcJGP3EX3" name="Page-1">
    <mxGraphModel dx="1185" dy="632" grid="1" gridSize="10" guides="1" tooltips="1" connect="1" arrows="1" fold="1" page="1" pageScale="1" pageWidth="827" pageHeight="1169" math="0" shadow="0">
      <root>
        <mxCell id="0" />
        <mxCell id="1" parent="0" />
        <mxCell id="FGZiyLkYczWA7S_5GVxX-21" value="" style="endArrow=none;html=1;rounded=0;fontFamily=Georgia;" parent="1" edge="1">
          <mxGeometry width="50" height="50" relative="1" as="geometry">
            <mxPoint x="131" y="300" as="sourcePoint" />
            <mxPoint x="241" y="300" as="targetPoint" />
          </mxGeometry>
        </mxCell>
        <mxCell id="FGZiyLkYczWA7S_5GVxX-22" value="" style="endArrow=none;html=1;rounded=0;fontFamily=Georgia;" parent="1" edge="1">
          <mxGeometry width="50" height="50" relative="1" as="geometry">
            <mxPoint x="131" y="360" as="sourcePoint" />
            <mxPoint x="241" y="360" as="targetPoint" />
          </mxGeometry>
        </mxCell>
        <mxCell id="FGZiyLkYczWA7S_5GVxX-23" value="" style="endArrow=none;html=1;rounded=0;fontFamily=Georgia;" parent="1" edge="1">
          <mxGeometry width="50" height="50" relative="1" as="geometry">
            <mxPoint x="241" y="300" as="sourcePoint" />
            <mxPoint x="241" y="360" as="targetPoint" />
          </mxGeometry>
        </mxCell>
        <mxCell id="FGZiyLkYczWA7S_5GVxX-24" value="" style="endArrow=none;html=1;rounded=0;fontFamily=Georgia;" parent="1" edge="1">
          <mxGeometry width="50" height="50" relative="1" as="geometry">
            <mxPoint x="221" y="300" as="sourcePoint" />
            <mxPoint x="221" y="360" as="targetPoint" />
          </mxGeometry>
        </mxCell>
        <mxCell id="FGZiyLkYczWA7S_5GVxX-25" value="" style="endArrow=none;html=1;rounded=0;fontFamily=Georgia;" parent="1" edge="1">
          <mxGeometry width="50" height="50" relative="1" as="geometry">
            <mxPoint x="201" y="300" as="sourcePoint" />
            <mxPoint x="201" y="360" as="targetPoint" />
          </mxGeometry>
        </mxCell>
        <mxCell id="FGZiyLkYczWA7S_5GVxX-26" value="" style="endArrow=none;html=1;rounded=0;fontFamily=Georgia;" parent="1" edge="1">
          <mxGeometry width="50" height="50" relative="1" as="geometry">
            <mxPoint x="181" y="300" as="sourcePoint" />
            <mxPoint x="181" y="360" as="targetPoint" />
          </mxGeometry>
        </mxCell>
        <mxCell id="FGZiyLkYczWA7S_5GVxX-27" value="" style="endArrow=none;html=1;rounded=0;fontFamily=Georgia;" parent="1" edge="1">
          <mxGeometry width="50" height="50" relative="1" as="geometry">
            <mxPoint x="161" y="300" as="sourcePoint" />
            <mxPoint x="161" y="360" as="targetPoint" />
          </mxGeometry>
        </mxCell>
        <mxCell id="FGZiyLkYczWA7S_5GVxX-28" value="" style="endArrow=classic;html=1;rounded=0;fontFamily=Georgia;" parent="1" edge="1">
          <mxGeometry width="50" height="50" relative="1" as="geometry">
            <mxPoint x="80" y="330" as="sourcePoint" />
            <mxPoint x="141" y="330" as="targetPoint" />
          </mxGeometry>
        </mxCell>
        <mxCell id="FGZiyLkYczWA7S_5GVxX-61" value="λ" style="edgeLabel;html=1;align=center;verticalAlign=middle;resizable=0;points=[];fontSize=15;fontFamily=Georgia;" parent="FGZiyLkYczWA7S_5GVxX-28" vertex="1" connectable="0">
          <mxGeometry x="-0.5903" relative="1" as="geometry">
            <mxPoint x="9" y="-11" as="offset" />
          </mxGeometry>
        </mxCell>
        <mxCell id="FGZiyLkYczWA7S_5GVxX-29" value="&lt;span style=&quot;background-color: transparent&quot;&gt;&lt;font color=&quot;#0000ff&quot;&gt;μ&lt;sub style=&quot;&quot;&gt;0&lt;/sub&gt;&lt;/font&gt;&lt;/span&gt;" style="ellipse;whiteSpace=wrap;html=1;aspect=fixed;fontFamily=Georgia;" parent="1" vertex="1">
          <mxGeometry x="330" y="300" width="60" height="60" as="geometry" />
        </mxCell>
        <mxCell id="FGZiyLkYczWA7S_5GVxX-31" value="" style="endArrow=classic;html=1;rounded=0;strokeColor=#001DBC;fontFamily=Georgia;entryX=0;entryY=0.5;entryDx=0;entryDy=0;fillColor=#0050ef;" parent="1" edge="1" target="FGZiyLkYczWA7S_5GVxX-29">
          <mxGeometry width="50" height="50" relative="1" as="geometry">
            <mxPoint x="240" y="330" as="sourcePoint" />
            <mxPoint x="341" y="340" as="targetPoint" />
          </mxGeometry>
        </mxCell>
        <mxCell id="vmARAZOoHFolNQza6AN0-3" value="&lt;span style=&quot;background-color: transparent&quot;&gt;&lt;font color=&quot;#FF0000&quot;&gt;μ&lt;/font&gt;&lt;sub&gt;&lt;font color=&quot;#FF0000&quot;&gt;1&lt;/font&gt;&lt;/sub&gt;&lt;br&gt;&lt;/span&gt;" style="ellipse;whiteSpace=wrap;html=1;aspect=fixed;fontFamily=Georgia;" vertex="1" parent="1">
          <mxGeometry x="330" y="380" width="60" height="60" as="geometry" />
        </mxCell>
        <mxCell id="vmARAZOoHFolNQza6AN0-4" value="" style="endArrow=classic;html=1;rounded=0;strokeColor=#FF0000;fontFamily=Georgia;entryX=0;entryY=0.5;entryDx=0;entryDy=0;fillColor=#a20025;" edge="1" parent="1" target="vmARAZOoHFolNQza6AN0-3">
          <mxGeometry width="50" height="50" relative="1" as="geometry">
            <mxPoint x="240" y="330" as="sourcePoint" />
            <mxPoint x="351" y="350" as="targetPoint" />
          </mxGeometry>
        </mxCell>
      </root>
    </mxGraphModel>
  </diagram>
  <diagram id="0Yo5gGuUIpMl9sLR1OLQ" name="Page-2">
    <mxGraphModel dx="782" dy="412" grid="1" gridSize="10" guides="1" tooltips="1" connect="1" arrows="1" fold="1" page="1" pageScale="1" pageWidth="827" pageHeight="1169" math="0" shadow="0">
      <root>
        <mxCell id="drhzaPPeF4iZ4GxCIF6M-0" />
        <mxCell id="drhzaPPeF4iZ4GxCIF6M-1" parent="drhzaPPeF4iZ4GxCIF6M-0" />
        <mxCell id="ZZ3DikQbErYwZuaCqR6U-0" value="" style="endArrow=none;html=1;rounded=0;fontFamily=Georgia;" parent="drhzaPPeF4iZ4GxCIF6M-1" edge="1">
          <mxGeometry width="50" height="50" relative="1" as="geometry">
            <mxPoint x="121" y="620" as="sourcePoint" />
            <mxPoint x="231" y="620" as="targetPoint" />
          </mxGeometry>
        </mxCell>
        <mxCell id="ZZ3DikQbErYwZuaCqR6U-1" value="" style="endArrow=none;html=1;rounded=0;fontFamily=Georgia;" parent="drhzaPPeF4iZ4GxCIF6M-1" edge="1">
          <mxGeometry width="50" height="50" relative="1" as="geometry">
            <mxPoint x="121" y="680" as="sourcePoint" />
            <mxPoint x="231" y="680" as="targetPoint" />
          </mxGeometry>
        </mxCell>
        <mxCell id="ZZ3DikQbErYwZuaCqR6U-2" value="" style="endArrow=none;html=1;rounded=0;fontFamily=Georgia;" parent="drhzaPPeF4iZ4GxCIF6M-1" edge="1">
          <mxGeometry width="50" height="50" relative="1" as="geometry">
            <mxPoint x="231" y="620" as="sourcePoint" />
            <mxPoint x="231" y="680" as="targetPoint" />
          </mxGeometry>
        </mxCell>
        <mxCell id="ZZ3DikQbErYwZuaCqR6U-3" value="" style="endArrow=none;html=1;rounded=0;fontFamily=Georgia;" parent="drhzaPPeF4iZ4GxCIF6M-1" edge="1">
          <mxGeometry width="50" height="50" relative="1" as="geometry">
            <mxPoint x="211" y="620" as="sourcePoint" />
            <mxPoint x="211" y="680" as="targetPoint" />
          </mxGeometry>
        </mxCell>
        <mxCell id="ZZ3DikQbErYwZuaCqR6U-4" value="" style="endArrow=none;html=1;rounded=0;fontFamily=Georgia;" parent="drhzaPPeF4iZ4GxCIF6M-1" edge="1">
          <mxGeometry width="50" height="50" relative="1" as="geometry">
            <mxPoint x="191" y="620" as="sourcePoint" />
            <mxPoint x="191" y="680" as="targetPoint" />
          </mxGeometry>
        </mxCell>
        <mxCell id="ZZ3DikQbErYwZuaCqR6U-5" value="" style="endArrow=none;html=1;rounded=0;fontFamily=Georgia;" parent="drhzaPPeF4iZ4GxCIF6M-1" edge="1">
          <mxGeometry width="50" height="50" relative="1" as="geometry">
            <mxPoint x="171" y="620" as="sourcePoint" />
            <mxPoint x="171" y="680" as="targetPoint" />
          </mxGeometry>
        </mxCell>
        <mxCell id="ZZ3DikQbErYwZuaCqR6U-6" value="" style="endArrow=none;html=1;rounded=0;fontFamily=Georgia;" parent="drhzaPPeF4iZ4GxCIF6M-1" edge="1">
          <mxGeometry width="50" height="50" relative="1" as="geometry">
            <mxPoint x="151" y="620" as="sourcePoint" />
            <mxPoint x="151" y="680" as="targetPoint" />
          </mxGeometry>
        </mxCell>
        <mxCell id="ZZ3DikQbErYwZuaCqR6U-7" value="" style="endArrow=classic;html=1;rounded=0;fontFamily=Georgia;" parent="drhzaPPeF4iZ4GxCIF6M-1" edge="1">
          <mxGeometry width="50" height="50" relative="1" as="geometry">
            <mxPoint x="70" y="650" as="sourcePoint" />
            <mxPoint x="131" y="650" as="targetPoint" />
          </mxGeometry>
        </mxCell>
        <mxCell id="ZZ3DikQbErYwZuaCqR6U-8" value="λ" style="edgeLabel;html=1;align=center;verticalAlign=middle;resizable=0;points=[];fontSize=15;fontFamily=Georgia;" parent="ZZ3DikQbErYwZuaCqR6U-7" vertex="1" connectable="0">
          <mxGeometry x="-0.5903" relative="1" as="geometry">
            <mxPoint x="9" y="-11" as="offset" />
          </mxGeometry>
        </mxCell>
        <mxCell id="ZZ3DikQbErYwZuaCqR6U-9" value="&lt;span style=&quot;background-color: transparent&quot;&gt;μ&lt;br&gt;&lt;/span&gt;" style="ellipse;whiteSpace=wrap;html=1;aspect=fixed;fontFamily=Georgia;" parent="drhzaPPeF4iZ4GxCIF6M-1" vertex="1">
          <mxGeometry x="270" y="620" width="60" height="60" as="geometry" />
        </mxCell>
        <mxCell id="ZZ3DikQbErYwZuaCqR6U-10" value="" style="endArrow=none;html=1;rounded=0;fontFamily=Georgia;" parent="drhzaPPeF4iZ4GxCIF6M-1" edge="1">
          <mxGeometry width="50" height="50" relative="1" as="geometry">
            <mxPoint x="501" y="720" as="sourcePoint" />
            <mxPoint x="501" y="580" as="targetPoint" />
          </mxGeometry>
        </mxCell>
        <mxCell id="ZZ3DikQbErYwZuaCqR6U-11" value="" style="endArrow=classic;html=1;rounded=0;entryX=1;entryY=0.5;entryDx=0;entryDy=0;exitX=0.5;exitY=0;exitDx=0;exitDy=0;fontFamily=Georgia;" parent="drhzaPPeF4iZ4GxCIF6M-1" source="ZZ3DikQbErYwZuaCqR6U-12" edge="1">
          <mxGeometry width="50" height="50" relative="1" as="geometry">
            <mxPoint x="461" y="720" as="sourcePoint" />
            <mxPoint x="501" y="720" as="targetPoint" />
          </mxGeometry>
        </mxCell>
        <mxCell id="ZZ3DikQbErYwZuaCqR6U-12" value="μ&lt;sub&gt;d&lt;/sub&gt;" style="ellipse;whiteSpace=wrap;html=1;aspect=fixed;direction=south;fontFamily=Georgia;" parent="drhzaPPeF4iZ4GxCIF6M-1" vertex="1">
          <mxGeometry x="421" y="700" width="40" height="40" as="geometry" />
        </mxCell>
        <mxCell id="ZZ3DikQbErYwZuaCqR6U-13" value="" style="endArrow=classic;html=1;rounded=0;entryX=1;entryY=0.5;entryDx=0;entryDy=0;exitX=0.5;exitY=0;exitDx=0;exitDy=0;fontFamily=Georgia;" parent="drhzaPPeF4iZ4GxCIF6M-1" source="ZZ3DikQbErYwZuaCqR6U-14" edge="1">
          <mxGeometry width="50" height="50" relative="1" as="geometry">
            <mxPoint x="461" y="630" as="sourcePoint" />
            <mxPoint x="501" y="630" as="targetPoint" />
          </mxGeometry>
        </mxCell>
        <mxCell id="ZZ3DikQbErYwZuaCqR6U-14" value="μ&lt;sub&gt;d&lt;/sub&gt;" style="ellipse;whiteSpace=wrap;html=1;aspect=fixed;direction=south;fontFamily=Georgia;" parent="drhzaPPeF4iZ4GxCIF6M-1" vertex="1">
          <mxGeometry x="421" y="610" width="40" height="40" as="geometry" />
        </mxCell>
        <mxCell id="ZZ3DikQbErYwZuaCqR6U-15" value="" style="endArrow=none;dashed=1;html=1;dashPattern=1 3;strokeWidth=2;rounded=0;fontFamily=Georgia;" parent="drhzaPPeF4iZ4GxCIF6M-1" edge="1">
          <mxGeometry width="50" height="50" relative="1" as="geometry">
            <mxPoint x="441" y="660" as="sourcePoint" />
            <mxPoint x="440.8299999999999" y="690" as="targetPoint" />
            <Array as="points">
              <mxPoint x="441" y="660" />
            </Array>
          </mxGeometry>
        </mxCell>
        <mxCell id="ZZ3DikQbErYwZuaCqR6U-16" value="" style="endArrow=classic;html=1;rounded=0;entryX=1;entryY=0.5;entryDx=0;entryDy=0;exitX=0.5;exitY=0;exitDx=0;exitDy=0;fontFamily=Georgia;" parent="drhzaPPeF4iZ4GxCIF6M-1" source="ZZ3DikQbErYwZuaCqR6U-17" edge="1">
          <mxGeometry width="50" height="50" relative="1" as="geometry">
            <mxPoint x="461" y="580" as="sourcePoint" />
            <mxPoint x="501" y="580" as="targetPoint" />
          </mxGeometry>
        </mxCell>
        <mxCell id="ZZ3DikQbErYwZuaCqR6U-17" value="μ&lt;sub&gt;d&lt;/sub&gt;" style="ellipse;whiteSpace=wrap;html=1;aspect=fixed;direction=south;fontFamily=Georgia;" parent="drhzaPPeF4iZ4GxCIF6M-1" vertex="1">
          <mxGeometry x="421" y="560" width="40" height="40" as="geometry" />
        </mxCell>
        <mxCell id="ZZ3DikQbErYwZuaCqR6U-18" value="" style="endArrow=classic;html=1;rounded=0;exitX=0;exitY=0.5;exitDx=0;exitDy=0;entryX=0.5;entryY=1;entryDx=0;entryDy=0;fontFamily=Georgia;" parent="drhzaPPeF4iZ4GxCIF6M-1" target="ZZ3DikQbErYwZuaCqR6U-12" edge="1">
          <mxGeometry width="50" height="50" relative="1" as="geometry">
            <mxPoint x="381" y="720" as="sourcePoint" />
            <mxPoint x="371" y="710" as="targetPoint" />
          </mxGeometry>
        </mxCell>
        <mxCell id="ZZ3DikQbErYwZuaCqR6U-19" value="" style="endArrow=classic;html=1;rounded=0;exitX=0;exitY=0.5;exitDx=0;exitDy=0;entryX=0.5;entryY=1;entryDx=0;entryDy=0;fontFamily=Georgia;" parent="drhzaPPeF4iZ4GxCIF6M-1" target="ZZ3DikQbErYwZuaCqR6U-14" edge="1">
          <mxGeometry width="50" height="50" relative="1" as="geometry">
            <mxPoint x="381" y="629.8299999999999" as="sourcePoint" />
            <mxPoint x="411" y="630" as="targetPoint" />
          </mxGeometry>
        </mxCell>
        <mxCell id="ZZ3DikQbErYwZuaCqR6U-20" value="" style="endArrow=classic;html=1;rounded=0;exitX=0;exitY=0.5;exitDx=0;exitDy=0;entryX=0.5;entryY=1;entryDx=0;entryDy=0;fontFamily=Georgia;" parent="drhzaPPeF4iZ4GxCIF6M-1" target="ZZ3DikQbErYwZuaCqR6U-17" edge="1">
          <mxGeometry width="50" height="50" relative="1" as="geometry">
            <mxPoint x="381" y="579.8299999999999" as="sourcePoint" />
            <mxPoint x="411" y="580" as="targetPoint" />
          </mxGeometry>
        </mxCell>
        <mxCell id="ZZ3DikQbErYwZuaCqR6U-21" value="" style="endArrow=none;html=1;rounded=0;fontFamily=Georgia;" parent="drhzaPPeF4iZ4GxCIF6M-1" edge="1">
          <mxGeometry width="50" height="50" relative="1" as="geometry">
            <mxPoint x="381" y="580" as="sourcePoint" />
            <mxPoint x="381" y="720" as="targetPoint" />
          </mxGeometry>
        </mxCell>
        <mxCell id="ZZ3DikQbErYwZuaCqR6U-22" value="" style="endArrow=classic;html=1;rounded=0;fontSize=15;fontColor=#000000;strokeColor=#000000;fontFamily=Georgia;" parent="drhzaPPeF4iZ4GxCIF6M-1" target="ZZ3DikQbErYwZuaCqR6U-9" edge="1">
          <mxGeometry width="50" height="50" relative="1" as="geometry">
            <mxPoint x="229.99999999999977" y="650" as="sourcePoint" />
            <mxPoint x="380" y="600" as="targetPoint" />
          </mxGeometry>
        </mxCell>
        <mxCell id="ZZ3DikQbErYwZuaCqR6U-23" value="" style="endArrow=classic;html=1;rounded=0;fontSize=15;fontColor=#000000;strokeColor=#000000;exitX=1;exitY=0.5;exitDx=0;exitDy=0;fontFamily=Georgia;" parent="drhzaPPeF4iZ4GxCIF6M-1" source="ZZ3DikQbErYwZuaCqR6U-9" edge="1">
          <mxGeometry width="50" height="50" relative="1" as="geometry">
            <mxPoint x="340" y="650" as="sourcePoint" />
            <mxPoint x="379.9999999999998" y="650" as="targetPoint" />
          </mxGeometry>
        </mxCell>
        <mxCell id="ZZ3DikQbErYwZuaCqR6U-24" value="" style="endArrow=classic;html=1;rounded=0;fontSize=15;fontColor=#000000;strokeColor=#000000;fontFamily=Georgia;" parent="drhzaPPeF4iZ4GxCIF6M-1" edge="1">
          <mxGeometry width="50" height="50" relative="1" as="geometry">
            <mxPoint x="499.9999999999998" y="650" as="sourcePoint" />
            <mxPoint x="569.9999999999998" y="650" as="targetPoint" />
          </mxGeometry>
        </mxCell>
        <mxCell id="ZZ3DikQbErYwZuaCqR6U-25" value="" style="endArrow=none;html=1;rounded=0;fontFamily=Georgia;" parent="drhzaPPeF4iZ4GxCIF6M-1" edge="1">
          <mxGeometry width="50" height="50" relative="1" as="geometry">
            <mxPoint x="557" y="620" as="sourcePoint" />
            <mxPoint x="667" y="620" as="targetPoint" />
          </mxGeometry>
        </mxCell>
        <mxCell id="ZZ3DikQbErYwZuaCqR6U-26" value="" style="endArrow=none;html=1;rounded=0;fontFamily=Georgia;" parent="drhzaPPeF4iZ4GxCIF6M-1" edge="1">
          <mxGeometry width="50" height="50" relative="1" as="geometry">
            <mxPoint x="557" y="680" as="sourcePoint" />
            <mxPoint x="667" y="680" as="targetPoint" />
          </mxGeometry>
        </mxCell>
        <mxCell id="ZZ3DikQbErYwZuaCqR6U-27" value="" style="endArrow=none;html=1;rounded=0;fontFamily=Georgia;" parent="drhzaPPeF4iZ4GxCIF6M-1" edge="1">
          <mxGeometry width="50" height="50" relative="1" as="geometry">
            <mxPoint x="667" y="620" as="sourcePoint" />
            <mxPoint x="667" y="680" as="targetPoint" />
          </mxGeometry>
        </mxCell>
        <mxCell id="ZZ3DikQbErYwZuaCqR6U-28" value="" style="endArrow=none;html=1;rounded=0;fontFamily=Georgia;" parent="drhzaPPeF4iZ4GxCIF6M-1" edge="1">
          <mxGeometry width="50" height="50" relative="1" as="geometry">
            <mxPoint x="647" y="620" as="sourcePoint" />
            <mxPoint x="647" y="680" as="targetPoint" />
          </mxGeometry>
        </mxCell>
        <mxCell id="ZZ3DikQbErYwZuaCqR6U-29" value="" style="endArrow=none;html=1;rounded=0;fontFamily=Georgia;" parent="drhzaPPeF4iZ4GxCIF6M-1" edge="1">
          <mxGeometry width="50" height="50" relative="1" as="geometry">
            <mxPoint x="627" y="620" as="sourcePoint" />
            <mxPoint x="627" y="680" as="targetPoint" />
          </mxGeometry>
        </mxCell>
        <mxCell id="ZZ3DikQbErYwZuaCqR6U-30" value="" style="endArrow=none;html=1;rounded=0;fontFamily=Georgia;" parent="drhzaPPeF4iZ4GxCIF6M-1" edge="1">
          <mxGeometry width="50" height="50" relative="1" as="geometry">
            <mxPoint x="607" y="620" as="sourcePoint" />
            <mxPoint x="607" y="680" as="targetPoint" />
          </mxGeometry>
        </mxCell>
        <mxCell id="ZZ3DikQbErYwZuaCqR6U-31" value="" style="endArrow=none;html=1;rounded=0;fontFamily=Georgia;" parent="drhzaPPeF4iZ4GxCIF6M-1" edge="1">
          <mxGeometry width="50" height="50" relative="1" as="geometry">
            <mxPoint x="587" y="620" as="sourcePoint" />
            <mxPoint x="587" y="680" as="targetPoint" />
          </mxGeometry>
        </mxCell>
        <mxCell id="ZZ3DikQbErYwZuaCqR6U-32" value="" style="endArrow=classic;html=1;rounded=0;fontSize=15;fontColor=#000000;strokeColor=#000000;dashed=1;entryX=0.5;entryY=1.058;entryDx=0;entryDy=0;entryPerimeter=0;dashPattern=1 1;fontFamily=Georgia;" parent="drhzaPPeF4iZ4GxCIF6M-1" target="ZZ3DikQbErYwZuaCqR6U-9" edge="1">
          <mxGeometry width="50" height="50" relative="1" as="geometry">
            <mxPoint x="669.9999999999998" y="650" as="sourcePoint" />
            <mxPoint x="280" y="780" as="targetPoint" />
            <Array as="points">
              <mxPoint x="720" y="650" />
              <mxPoint x="720" y="780" />
              <mxPoint x="300" y="780" />
            </Array>
          </mxGeometry>
        </mxCell>
        <mxCell id="ZZ3DikQbErYwZuaCqR6U-33" value="" style="endArrow=classic;html=1;rounded=0;dashed=1;fontSize=15;fontColor=#000000;strokeColor=#000000;strokeWidth=1;exitX=0.502;exitY=-0.048;exitDx=0;exitDy=0;exitPerimeter=0;dashPattern=1 1;fontFamily=Georgia;" parent="drhzaPPeF4iZ4GxCIF6M-1" source="ZZ3DikQbErYwZuaCqR6U-9" edge="1">
          <mxGeometry width="50" height="50" relative="1" as="geometry">
            <mxPoint x="300" y="600" as="sourcePoint" />
            <mxPoint x="299.9999999999998" y="520" as="targetPoint" />
          </mxGeometry>
        </mxCell>
        <mxCell id="ZZ3DikQbErYwZuaCqR6U-34" value="" style="rounded=0;whiteSpace=wrap;html=1;dashed=1;labelBackgroundColor=#FF0000;fontSize=15;fontColor=#000000;fillColor=none;fontFamily=Georgia;" parent="drhzaPPeF4iZ4GxCIF6M-1" vertex="1">
          <mxGeometry x="110" y="550" width="420" height="200" as="geometry" />
        </mxCell>
      </root>
    </mxGraphModel>
  </diagram>
  <diagram id="C_B5Z1wjb6VCZKC8pH3u" name="Page-3">
    <mxGraphModel dx="782" dy="412" grid="1" gridSize="10" guides="1" tooltips="1" connect="1" arrows="1" fold="1" page="1" pageScale="1" pageWidth="827" pageHeight="1169" math="0" shadow="0">
      <root>
        <mxCell id="-1RNmuxzyeGddN9J9dOb-0" />
        <mxCell id="-1RNmuxzyeGddN9J9dOb-1" parent="-1RNmuxzyeGddN9J9dOb-0" />
        <mxCell id="-1RNmuxzyeGddN9J9dOb-2" value="" style="endArrow=none;html=1;rounded=0;fontFamily=Georgia;" edge="1" parent="-1RNmuxzyeGddN9J9dOb-1">
          <mxGeometry width="50" height="50" relative="1" as="geometry">
            <mxPoint x="130" y="400" as="sourcePoint" />
            <mxPoint x="240" y="400" as="targetPoint" />
          </mxGeometry>
        </mxCell>
        <mxCell id="-1RNmuxzyeGddN9J9dOb-3" value="" style="endArrow=none;html=1;rounded=0;fontFamily=Georgia;" edge="1" parent="-1RNmuxzyeGddN9J9dOb-1">
          <mxGeometry width="50" height="50" relative="1" as="geometry">
            <mxPoint x="130" y="460" as="sourcePoint" />
            <mxPoint x="240" y="460" as="targetPoint" />
          </mxGeometry>
        </mxCell>
        <mxCell id="-1RNmuxzyeGddN9J9dOb-4" value="" style="endArrow=none;html=1;rounded=0;fontFamily=Georgia;" edge="1" parent="-1RNmuxzyeGddN9J9dOb-1">
          <mxGeometry width="50" height="50" relative="1" as="geometry">
            <mxPoint x="240" y="400" as="sourcePoint" />
            <mxPoint x="240" y="460" as="targetPoint" />
          </mxGeometry>
        </mxCell>
        <mxCell id="-1RNmuxzyeGddN9J9dOb-5" value="" style="endArrow=none;html=1;rounded=0;fontFamily=Georgia;" edge="1" parent="-1RNmuxzyeGddN9J9dOb-1">
          <mxGeometry width="50" height="50" relative="1" as="geometry">
            <mxPoint x="220" y="400" as="sourcePoint" />
            <mxPoint x="220" y="460" as="targetPoint" />
          </mxGeometry>
        </mxCell>
        <mxCell id="-1RNmuxzyeGddN9J9dOb-6" value="" style="endArrow=none;html=1;rounded=0;fontFamily=Georgia;" edge="1" parent="-1RNmuxzyeGddN9J9dOb-1">
          <mxGeometry width="50" height="50" relative="1" as="geometry">
            <mxPoint x="200" y="400" as="sourcePoint" />
            <mxPoint x="200" y="460" as="targetPoint" />
          </mxGeometry>
        </mxCell>
        <mxCell id="-1RNmuxzyeGddN9J9dOb-7" value="" style="endArrow=none;html=1;rounded=0;fontFamily=Georgia;" edge="1" parent="-1RNmuxzyeGddN9J9dOb-1">
          <mxGeometry width="50" height="50" relative="1" as="geometry">
            <mxPoint x="180" y="400" as="sourcePoint" />
            <mxPoint x="180" y="460" as="targetPoint" />
          </mxGeometry>
        </mxCell>
        <mxCell id="-1RNmuxzyeGddN9J9dOb-8" value="" style="endArrow=none;html=1;rounded=0;fontFamily=Georgia;" edge="1" parent="-1RNmuxzyeGddN9J9dOb-1">
          <mxGeometry width="50" height="50" relative="1" as="geometry">
            <mxPoint x="160" y="400" as="sourcePoint" />
            <mxPoint x="160" y="460" as="targetPoint" />
          </mxGeometry>
        </mxCell>
        <mxCell id="-1RNmuxzyeGddN9J9dOb-9" value="" style="endArrow=classic;html=1;rounded=0;fontFamily=Georgia;" edge="1" parent="-1RNmuxzyeGddN9J9dOb-1">
          <mxGeometry width="50" height="50" relative="1" as="geometry">
            <mxPoint x="79" y="430" as="sourcePoint" />
            <mxPoint x="140" y="430" as="targetPoint" />
          </mxGeometry>
        </mxCell>
        <mxCell id="-1RNmuxzyeGddN9J9dOb-10" value="λ" style="edgeLabel;html=1;align=center;verticalAlign=middle;resizable=0;points=[];fontSize=15;fontFamily=Georgia;" vertex="1" connectable="0" parent="-1RNmuxzyeGddN9J9dOb-9">
          <mxGeometry x="-0.5903" relative="1" as="geometry">
            <mxPoint x="9" y="-11" as="offset" />
          </mxGeometry>
        </mxCell>
        <mxCell id="-1RNmuxzyeGddN9J9dOb-11" value="&lt;span style=&quot;background-color: transparent&quot;&gt;&lt;font color=&quot;#FFB366&quot;&gt;μ&lt;/font&gt;&lt;/span&gt;" style="ellipse;whiteSpace=wrap;html=1;aspect=fixed;fontFamily=Georgia;" vertex="1" parent="-1RNmuxzyeGddN9J9dOb-1">
          <mxGeometry x="341" y="306" width="60" height="60" as="geometry" />
        </mxCell>
        <mxCell id="-1RNmuxzyeGddN9J9dOb-12" value="" style="endArrow=classic;html=1;rounded=0;entryX=0.5;entryY=1;entryDx=0;entryDy=0;fillColor=#f8cecc;strokeColor=#FF3333;fontFamily=Georgia;" edge="1" parent="-1RNmuxzyeGddN9J9dOb-1" target="-1RNmuxzyeGddN9J9dOb-11">
          <mxGeometry width="50" height="50" relative="1" as="geometry">
            <mxPoint x="240" y="430" as="sourcePoint" />
            <mxPoint x="301" y="356" as="targetPoint" />
            <Array as="points">
              <mxPoint x="371" y="430" />
            </Array>
          </mxGeometry>
        </mxCell>
        <mxCell id="-1RNmuxzyeGddN9J9dOb-13" value="" style="endArrow=classic;html=1;rounded=0;exitX=1;exitY=0.5;exitDx=0;exitDy=0;strokeColor=#FFB366;fontFamily=Georgia;" edge="1" parent="-1RNmuxzyeGddN9J9dOb-1" source="-1RNmuxzyeGddN9J9dOb-11">
          <mxGeometry width="50" height="50" relative="1" as="geometry">
            <mxPoint x="241" y="436" as="sourcePoint" />
            <mxPoint x="480" y="336" as="targetPoint" />
          </mxGeometry>
        </mxCell>
        <mxCell id="-1RNmuxzyeGddN9J9dOb-14" value="" style="endArrow=classic;html=1;rounded=0;exitX=0.5;exitY=0;exitDx=0;exitDy=0;strokeColor=#FF3333;fontFamily=Georgia;" edge="1" parent="-1RNmuxzyeGddN9J9dOb-1" source="-1RNmuxzyeGddN9J9dOb-11">
          <mxGeometry width="50" height="50" relative="1" as="geometry">
            <mxPoint x="241" y="436" as="sourcePoint" />
            <mxPoint x="130" y="336" as="targetPoint" />
            <Array as="points">
              <mxPoint x="371" y="270" />
              <mxPoint x="80" y="270" />
              <mxPoint x="80" y="336" />
            </Array>
          </mxGeometry>
        </mxCell>
        <mxCell id="-1RNmuxzyeGddN9J9dOb-35" value="" style="endArrow=classic;html=1;rounded=0;entryX=0;entryY=0.5;entryDx=0;entryDy=0;fillColor=#fff2cc;strokeColor=#FFB366;fontFamily=Georgia;" edge="1" parent="-1RNmuxzyeGddN9J9dOb-1" target="-1RNmuxzyeGddN9J9dOb-11">
          <mxGeometry width="50" height="50" relative="1" as="geometry">
            <mxPoint x="240" y="336" as="sourcePoint" />
            <mxPoint x="371" y="280" as="targetPoint" />
            <Array as="points">
              <mxPoint x="310" y="336" />
            </Array>
          </mxGeometry>
        </mxCell>
        <mxCell id="-1RNmuxzyeGddN9J9dOb-15" value="" style="endArrow=none;html=1;rounded=0;fontFamily=Georgia;" edge="1" parent="-1RNmuxzyeGddN9J9dOb-1">
          <mxGeometry width="50" height="50" relative="1" as="geometry">
            <mxPoint x="130" y="306" as="sourcePoint" />
            <mxPoint x="240" y="306" as="targetPoint" />
          </mxGeometry>
        </mxCell>
        <mxCell id="-1RNmuxzyeGddN9J9dOb-16" value="" style="endArrow=none;html=1;rounded=0;fontFamily=Georgia;" edge="1" parent="-1RNmuxzyeGddN9J9dOb-1">
          <mxGeometry width="50" height="50" relative="1" as="geometry">
            <mxPoint x="130" y="366" as="sourcePoint" />
            <mxPoint x="240" y="366" as="targetPoint" />
          </mxGeometry>
        </mxCell>
        <mxCell id="-1RNmuxzyeGddN9J9dOb-17" value="" style="endArrow=none;html=1;rounded=0;fontFamily=Georgia;" edge="1" parent="-1RNmuxzyeGddN9J9dOb-1">
          <mxGeometry width="50" height="50" relative="1" as="geometry">
            <mxPoint x="240" y="306" as="sourcePoint" />
            <mxPoint x="240" y="366" as="targetPoint" />
          </mxGeometry>
        </mxCell>
        <mxCell id="-1RNmuxzyeGddN9J9dOb-18" value="" style="endArrow=none;html=1;rounded=0;fontFamily=Georgia;" edge="1" parent="-1RNmuxzyeGddN9J9dOb-1">
          <mxGeometry width="50" height="50" relative="1" as="geometry">
            <mxPoint x="220" y="306" as="sourcePoint" />
            <mxPoint x="220" y="366" as="targetPoint" />
          </mxGeometry>
        </mxCell>
        <mxCell id="-1RNmuxzyeGddN9J9dOb-19" value="" style="endArrow=none;html=1;rounded=0;fontFamily=Georgia;" edge="1" parent="-1RNmuxzyeGddN9J9dOb-1">
          <mxGeometry width="50" height="50" relative="1" as="geometry">
            <mxPoint x="200" y="306" as="sourcePoint" />
            <mxPoint x="200" y="366" as="targetPoint" />
          </mxGeometry>
        </mxCell>
        <mxCell id="-1RNmuxzyeGddN9J9dOb-20" value="" style="endArrow=none;html=1;rounded=0;fontFamily=Georgia;" edge="1" parent="-1RNmuxzyeGddN9J9dOb-1">
          <mxGeometry width="50" height="50" relative="1" as="geometry">
            <mxPoint x="180" y="306" as="sourcePoint" />
            <mxPoint x="180" y="366" as="targetPoint" />
          </mxGeometry>
        </mxCell>
        <mxCell id="-1RNmuxzyeGddN9J9dOb-21" value="" style="endArrow=none;html=1;rounded=0;fontFamily=Georgia;" edge="1" parent="-1RNmuxzyeGddN9J9dOb-1">
          <mxGeometry width="50" height="50" relative="1" as="geometry">
            <mxPoint x="160" y="306" as="sourcePoint" />
            <mxPoint x="160" y="366" as="targetPoint" />
          </mxGeometry>
        </mxCell>
      </root>
    </mxGraphModel>
  </diagram>
</mxfile>
